<mxfile host="Electron" agent="Mozilla/5.0 (Macintosh; Intel Mac OS X 10_15_7) AppleWebKit/537.36 (KHTML, like Gecko) draw.io/26.2.2 Chrome/134.0.6998.178 Electron/35.1.2 Safari/537.36" version="26.2.2">
  <diagram id="C5RBs43oDa-KdzZeNtuy" name="Page-1">
    <mxGraphModel dx="2247" dy="859" grid="1" gridSize="10" guides="1" tooltips="1" connect="1" arrows="1" fold="1" page="1" pageScale="1" pageWidth="827" pageHeight="1169" math="0" shadow="0">
      <root>
        <mxCell id="WIyWlLk6GJQsqaUBKTNV-0" />
        <mxCell id="WIyWlLk6GJQsqaUBKTNV-1" parent="WIyWlLk6GJQsqaUBKTNV-0" />
        <mxCell id="gSlC0y6gFrSdkTjdue_J-0" value="" style="edgeStyle=orthogonalEdgeStyle;rounded=0;orthogonalLoop=1;jettySize=auto;html=1;" edge="1" parent="WIyWlLk6GJQsqaUBKTNV-1" source="WIyWlLk6GJQsqaUBKTNV-3" target="WIyWlLk6GJQsqaUBKTNV-6">
          <mxGeometry relative="1" as="geometry" />
        </mxCell>
        <mxCell id="WIyWlLk6GJQsqaUBKTNV-3" value="Client Sends SFTP Files (.csv or .xml)" style="rounded=1;whiteSpace=wrap;html=1;fontSize=12;glass=0;strokeWidth=1;shadow=0;" parent="WIyWlLk6GJQsqaUBKTNV-1" vertex="1">
          <mxGeometry x="20" y="20" width="240" height="70" as="geometry" />
        </mxCell>
        <mxCell id="Qdlkz7iwt8wVchBk36uC-6" value="" style="edgeStyle=orthogonalEdgeStyle;rounded=0;orthogonalLoop=1;jettySize=auto;html=1;" parent="WIyWlLk6GJQsqaUBKTNV-1" source="WIyWlLk6GJQsqaUBKTNV-6" target="Qdlkz7iwt8wVchBk36uC-3" edge="1">
          <mxGeometry relative="1" as="geometry">
            <Array as="points">
              <mxPoint x="140" y="270" />
              <mxPoint x="255" y="270" />
            </Array>
          </mxGeometry>
        </mxCell>
        <mxCell id="WIyWlLk6GJQsqaUBKTNV-6" value="Digital Ocean Virtual Private Server" style="rhombus;whiteSpace=wrap;html=1;shadow=0;fontFamily=Helvetica;fontSize=12;align=center;strokeWidth=1;spacing=6;spacingTop=-4;" parent="WIyWlLk6GJQsqaUBKTNV-1" vertex="1">
          <mxGeometry x="20" y="150" width="240" height="100" as="geometry" />
        </mxCell>
        <mxCell id="Qdlkz7iwt8wVchBk36uC-5" value="" style="edgeStyle=orthogonalEdgeStyle;rounded=0;orthogonalLoop=1;jettySize=auto;html=1;" parent="WIyWlLk6GJQsqaUBKTNV-1" source="Qdlkz7iwt8wVchBk36uC-1" target="Qdlkz7iwt8wVchBk36uC-3" edge="1">
          <mxGeometry relative="1" as="geometry">
            <Array as="points">
              <mxPoint x="370" y="270" />
              <mxPoint x="255" y="270" />
            </Array>
          </mxGeometry>
        </mxCell>
        <mxCell id="Qdlkz7iwt8wVchBk36uC-1" value="&lt;i&gt;Server Provisioning via Terminal (One time setup)&lt;/i&gt;" style="ellipse;whiteSpace=wrap;html=1;" parent="WIyWlLk6GJQsqaUBKTNV-1" vertex="1">
          <mxGeometry x="310" y="160" width="120" height="80" as="geometry" />
        </mxCell>
        <mxCell id="Qdlkz7iwt8wVchBk36uC-2" value="" style="endArrow=classic;html=1;rounded=0;exitX=1;exitY=0.5;exitDx=0;exitDy=0;" parent="WIyWlLk6GJQsqaUBKTNV-1" source="WIyWlLk6GJQsqaUBKTNV-6" edge="1">
          <mxGeometry width="50" height="50" relative="1" as="geometry">
            <mxPoint x="390" y="440" as="sourcePoint" />
            <mxPoint x="310" y="200" as="targetPoint" />
            <Array as="points" />
          </mxGeometry>
        </mxCell>
        <mxCell id="Qdlkz7iwt8wVchBk36uC-8" value="" style="edgeStyle=orthogonalEdgeStyle;rounded=0;orthogonalLoop=1;jettySize=auto;html=1;" parent="WIyWlLk6GJQsqaUBKTNV-1" source="Qdlkz7iwt8wVchBk36uC-3" target="Qdlkz7iwt8wVchBk36uC-7" edge="1">
          <mxGeometry relative="1" as="geometry" />
        </mxCell>
        <mxCell id="Qdlkz7iwt8wVchBk36uC-3" value="Python Script : Raw to bronze (&lt;span style=&quot;text-align: start; caret-color: rgb(0, 0, 0); font-size: medium; color: light-dark(rgb(0, 0, 0), rgb(255, 255, 255));&quot;&gt;Moves raw files from the VPS to Azure Blob&lt;/span&gt;&lt;span style=&quot;text-align: start; caret-color: rgb(0, 0, 0); color: rgb(0, 0, 0); font-size: medium;&quot;&gt;)&lt;/span&gt;&lt;br&gt;&lt;span style=&quot;color: light-dark(rgb(0, 0, 0), rgb(255, 255, 255));&quot;&gt;&lt;span style=&quot;text-align: start; caret-color: rgb(0, 0, 0); font-size: medium;&quot;&gt;Assigns&amp;nbsp;&lt;/span&gt;&lt;code style=&quot;text-align: start; caret-color: rgb(0, 0, 0);&quot; data-end=&quot;781&quot; data-start=&quot;770&quot;&gt;ControlNo&lt;/code&gt;&lt;span style=&quot;text-align: start; caret-color: rgb(0, 0, 0); font-size: medium;&quot;&gt;, timestamps, extracts&amp;nbsp;&lt;/span&gt;&lt;code style=&quot;text-align: start; caret-color: rgb(0, 0, 0);&quot; data-end=&quot;814&quot; data-start=&quot;804&quot;&gt;ClientID&lt;/code&gt;&lt;span style=&quot;text-align: start; caret-color: rgb(0, 0, 0); font-size: medium;&quot;&gt;&amp;nbsp;from folder name&lt;/span&gt;&lt;/span&gt;" style="rounded=1;whiteSpace=wrap;html=1;" parent="WIyWlLk6GJQsqaUBKTNV-1" vertex="1">
          <mxGeometry x="-70" y="300" width="650" height="80" as="geometry" />
        </mxCell>
        <mxCell id="Qdlkz7iwt8wVchBk36uC-10" value="" style="edgeStyle=orthogonalEdgeStyle;rounded=0;orthogonalLoop=1;jettySize=auto;html=1;" parent="WIyWlLk6GJQsqaUBKTNV-1" source="Qdlkz7iwt8wVchBk36uC-7" target="Qdlkz7iwt8wVchBk36uC-9" edge="1">
          <mxGeometry relative="1" as="geometry" />
        </mxCell>
        <mxCell id="Qdlkz7iwt8wVchBk36uC-7" value="Python Script : Bronze to Gold&lt;div&gt;&lt;br&gt;&lt;/div&gt;&lt;div&gt;&lt;span style=&quot;text-align: start; caret-color: rgb(0, 0, 0); font-size: medium; color: light-dark(rgb(0, 0, 0), rgb(255, 255, 255));&quot;&gt;Reads/parses CSVs, transforms if needed, Column Mapping, inserts into SQL tables&lt;/span&gt;&lt;br&gt;&lt;/div&gt;" style="rounded=1;whiteSpace=wrap;html=1;" parent="WIyWlLk6GJQsqaUBKTNV-1" vertex="1">
          <mxGeometry x="-75" y="420" width="660" height="90" as="geometry" />
        </mxCell>
        <mxCell id="Qdlkz7iwt8wVchBk36uC-9" value="SQL Warehouse Server" style="rounded=1;whiteSpace=wrap;html=1;" parent="WIyWlLk6GJQsqaUBKTNV-1" vertex="1">
          <mxGeometry x="-70" y="550" width="300" height="60" as="geometry" />
        </mxCell>
        <mxCell id="Qdlkz7iwt8wVchBk36uC-12" value="" style="edgeStyle=orthogonalEdgeStyle;rounded=0;orthogonalLoop=1;jettySize=auto;html=1;" parent="WIyWlLk6GJQsqaUBKTNV-1" source="Qdlkz7iwt8wVchBk36uC-11" target="Qdlkz7iwt8wVchBk36uC-9" edge="1">
          <mxGeometry relative="1" as="geometry" />
        </mxCell>
        <mxCell id="Qdlkz7iwt8wVchBk36uC-11" value="Stored Procedures run on loop master" style="rounded=1;whiteSpace=wrap;html=1;" parent="WIyWlLk6GJQsqaUBKTNV-1" vertex="1">
          <mxGeometry x="270" y="550" width="320" height="60" as="geometry" />
        </mxCell>
        <mxCell id="Qdlkz7iwt8wVchBk36uC-15" value="" style="edgeStyle=orthogonalEdgeStyle;rounded=0;orthogonalLoop=1;jettySize=auto;html=1;" parent="WIyWlLk6GJQsqaUBKTNV-1" source="Qdlkz7iwt8wVchBk36uC-14" target="Qdlkz7iwt8wVchBk36uC-11" edge="1">
          <mxGeometry relative="1" as="geometry" />
        </mxCell>
        <mxCell id="Qdlkz7iwt8wVchBk36uC-14" value="Power Bi Dashboard" style="rounded=1;whiteSpace=wrap;html=1;" parent="WIyWlLk6GJQsqaUBKTNV-1" vertex="1">
          <mxGeometry x="270" y="640" width="320" height="80" as="geometry" />
        </mxCell>
      </root>
    </mxGraphModel>
  </diagram>
</mxfile>
